<?xml version="1.0" encoding="utf-8"?>
<!-- Generator: Adobe Illustrator 16.0.0, SVG Export Plug-In . SVG Version: 6.00 Build 0)  -->
<!DOCTYPE svg PUBLIC "-//W3C//DTD SVG 1.1//EN" "http://www.w3.org/Graphics/SVG/1.1/DTD/svg11.dtd">
<svg version="1.1" id="Layer_1" xmlns="http://www.w3.org/2000/svg" xmlns:xlink="http://www.w3.org/1999/xlink" x="0px" y="0px"
	 width="130px" height="130px" viewBox="0 0 130 130" enable-background="new 0 0 130 130" xml:space="preserve">
<g>
	<g>
		<path fill="#FFECB3" d="M36.3,25.1c8.3-6.1,18.5-9.7,29.5-9.7c10.9,0,20.9,3.5,29.1,9.4"/>
		<path fill="#37474F" d="M36.3,27.1c-0.6,0-1.2-0.3-1.6-0.8c-0.7-0.9-0.5-2.1,0.4-2.8c8.9-6.6,19.6-10.1,30.7-10.1
			c11,0,21.4,3.4,30.3,9.8c0.9,0.6,1.1,1.9,0.4,2.8c-0.6,0.9-1.9,1.1-2.8,0.4c-8.2-5.9-17.8-9-27.9-9c-10.3,0-20.1,3.2-28.3,9.3
			C37.1,26.9,36.7,27.1,36.3,27.1z"/>
	</g>
	<g>
		<g>
			<g>
				<g>
					<g>
						<g>
							<g>
								<path fill="#FFFFFF" d="M72.1,59l-24.2-5.7c-0.6-0.2-1.1-0.4-1.7-0.4l-0.7-0.2l0.1,0.1c-1.5,0-3.1,0.6-4.3,1.8l-4.5-4.5"/>
								<path fill="#37474F" d="M72.1,61c-0.2,0-0.3,0-0.5-0.1l-24.2-5.7c-0.1,0-0.2-0.1-0.3-0.1c-0.4-0.1-0.8-0.2-1.2-0.3
									c-0.1,0-0.1,0-0.2,0c-0.1,0-0.1,0-0.2,0c-1.1,0-2.1,0.4-2.9,1.2c-0.8,0.8-2,0.8-2.8,0l-4.5-4.5c-0.8-0.8-0.8-2,0-2.8
									c0.8-0.8,2-0.8,2.8,0l3.3,3.3c1-0.6,2-0.9,3.2-1.1c0.4-0.2,0.9-0.2,1.3-0.1l0.5,0.1c0.7,0.1,1.4,0.2,2,0.5L72.5,57
									c1.1,0.3,1.7,1.3,1.5,2.4C73.8,60.4,73,61,72.1,61z"/>
							</g>
							<g>
								<line fill="#FFFFFF" x1="67.8" y1="72.4" x2="62.8" y2="67.5"/>
								<path fill="#37474F" d="M67.8,74.4c-0.5,0-1-0.2-1.4-0.6l-4.9-4.9c-0.8-0.8-0.8-2,0-2.8s2-0.8,2.8,0l4.9,4.9
									c0.8,0.8,0.8,2,0,2.8C68.8,74.2,68.3,74.4,67.8,74.4z"/>
							</g>
							<g>
								<path fill="#FFFFFF" d="M15.8,71l5.7,5.7c-2.4,2.4-1.8,6.9,0.6,9.3l16,16"/>
								<path fill="#37474F" d="M38.2,104c-0.5,0-1-0.2-1.4-0.6l-16-16c-2.6-2.6-3.7-7.1-1.8-10.5l-4.5-4.5c-0.8-0.8-0.8-2,0-2.8
									s2-0.8,2.8,0l5.7,5.7c0.8,0.8,0.8,2,0,2.8c-1.6,1.6-1,4.9,0.6,6.5l16,16c0.8,0.8,0.8,2,0,2.8C39.2,103.8,38.7,104,38.2,104z
									"/>
							</g>
							<g>
								<path fill="#FFFFFF" d="M38.1,101.9l13.3,13.3l9.5,4.3c1.8,1.8,4.8,1.8,6.7,0c1.8-1.8,1.8-4.8,0-6.7l-9.3-4.1l-8.5-8.5"/>
								<path fill="#37474F" d="M64.2,122.9c-1.6,0-3.2-0.6-4.5-1.7l-9.2-4.1c-0.2-0.1-0.4-0.2-0.6-0.4l-13.3-13.3
									c-0.8-0.8-0.8-2,0-2.8s2-0.8,2.8,0l13,13l9.2,4.1c0.2,0.1,0.4,0.2,0.6,0.4c1.1,1.1,2.8,1.1,3.8,0c1-1,1.1-2.5,0.2-3.6
									l-8.9-3.9c-0.2-0.1-0.4-0.2-0.6-0.4l-8.5-8.5c-0.8-0.8-0.8-2,0-2.8s2-0.8,2.8,0l8.2,8.2l9,3.9c0.2,0.1,0.4,0.2,0.6,0.4
									c2.6,2.6,2.6,6.9,0,9.5C67.7,122.2,66,122.9,64.2,122.9z"/>
							</g>
							<g>
								<path fill="#FFFFFF" d="M50.8,99.4l9.6,9.6l12.4,5.6c1.8,1.8,4.8,1.8,6.7,0c1.8-1.8,1.8-4.8,0-6.7l-12.6-5.8l-9.5-9.5"/>
								<path fill="#37474F" d="M76.2,118c-1.6,0-3.2-0.6-4.5-1.7l-12.1-5.5c-0.2-0.1-0.4-0.2-0.6-0.4l-9.6-9.6
									c-0.8-0.8-0.8-2,0-2.8c0.8-0.8,2-0.8,2.8,0l9.4,9.4l12.1,5.5c0.2,0.1,0.4,0.2,0.6,0.4c1.1,1.1,2.8,1.1,3.8,0
									c1-1,1.1-2.5,0.2-3.6L66.1,104c-0.2-0.1-0.4-0.2-0.6-0.4l-9.5-9.5c-0.8-0.8-0.8-2,0-2.8s2-0.8,2.8,0l9.2,9.2l12.3,5.7
									c0.2,0.1,0.4,0.2,0.6,0.4c2.6,2.6,2.6,6.9,0,9.5C79.6,117.4,77.9,118,76.2,118z"/>
							</g>
							<g>
								<path fill="#FFFFFF" d="M58.5,91.9l11.8,11.8l12.7,5.5c1.8,1.8,4.8,1.8,6.7,0c1.8-1.8,1.8-4.8,0-6.7L77,97L64.9,84.9"/>
								<path fill="#37474F" d="M86.4,112.6c-1.6,0-3.2-0.6-4.4-1.7l-12.4-5.4c-0.2-0.1-0.4-0.2-0.6-0.4L57.1,93.3
									c-0.8-0.8-0.8-2,0-2.8s2-0.8,2.8,0L71.5,102l12.4,5.3c0.2,0.1,0.4,0.2,0.6,0.4c1.1,1.1,2.8,1.1,3.8,0c1-1,1-2.5,0.2-3.6
									l-12.3-5.3c-0.2-0.1-0.4-0.2-0.6-0.4L63.5,86.3c-0.8-0.8-0.8-2,0-2.8s2-0.8,2.8,0l11.9,11.9l12.4,5.3
									c0.2,0.1,0.4,0.2,0.6,0.4c2.6,2.6,2.6,6.9,0,9.5C89.9,111.9,88.1,112.6,86.4,112.6z"/>
							</g>
							<g>
								<path fill="#FFFFFF" d="M66.1,84.1l16.2,16.2l9.1,2.5c5.1,0.1,4.8,1.8,6.7,0s4.1-5.8-1.9-8.1l-11-4.8L67.5,72.2"/>
								<path fill="#37474F" d="M96.6,105.6c-0.5,0-1-0.1-1.6-0.3c-0.7-0.2-1.7-0.5-3.7-0.6c-0.2,0-0.3,0-0.5-0.1l-9.1-2.5
									c-0.3-0.1-0.6-0.3-0.9-0.5L64.7,85.5c-0.8-0.8-0.8-2,0-2.8s2-0.8,2.8,0l15.8,15.8l8.4,2.3c2.3,0.1,3.7,0.5,4.5,0.7
									c0.1,0,0.2,0,0.2,0.1c0.1,0,0.1-0.1,0.2-0.2c0.8-0.8,1.6-2,1.4-2.8c-0.1-0.7-1.1-1.4-2.6-2l-11-4.8
									c-0.2-0.1-0.4-0.2-0.6-0.4L66.1,73.6c-0.8-0.8-0.8-2,0-2.8s2-0.8,2.8,0l17.4,17.4L97,92.8c2.8,1.1,4.5,2.7,5,4.9
									c0.6,3-1.5,5.5-2.5,6.5C98.4,105.2,97.5,105.6,96.6,105.6z"/>
							</g>
						</g>
					</g>
				</g>
				<g>
					<polyline fill="#FFAB00" points="8.9,9.1 42.7,42.9 12.5,73.2 4.8,65.5 					"/>
					<path fill="#37474F" d="M12.5,75.2L12.5,75.2c-0.5,0-1-0.2-1.4-0.6l-7.7-7.7c-0.8-0.8-0.8-2,0-2.8c0.8-0.8,2-0.8,2.8,0l6.3,6.3
						l27.4-27.4L7.5,10.5c-0.8-0.8-0.8-2,0-2.8c0.8-0.8,2-0.8,2.8,0l33.8,33.8c0.4,0.4,0.6,0.9,0.6,1.4s-0.2,1-0.6,1.4L13.9,74.6
						C13.5,75,13,75.2,12.5,75.2z"/>
				</g>
				<g>
					<line fill="#FFECB3" x1="3.2" y1="63.7" x2="32.9" y2="34"/>
					<path fill="#37474F" d="M3.2,65.7c-0.5,0-1-0.2-1.4-0.6c-0.8-0.8-0.8-2,0-2.8l29.7-29.7c0.8-0.8,2-0.8,2.8,0
						c0.8,0.8,0.8,2,0,2.8L4.6,65.1C4.2,65.5,3.7,65.7,3.2,65.7z"/>
				</g>
			</g>
			<g>
				<g>
					<g>
						<g>
							<g>
								<path fill="#FFFFFF" d="M94.9,50.1l-4.5,4.5c-1.2-1.2-2.7-1.8-4.3-1.8l0.1-0.1l-0.7,0.2c-0.6,0.1-1.2,0.2-1.7,0.4L59.5,59
									c-7.4-0.3-7.8,2.7-6.4,4.4c1.3,1.9,6.2,4.5,7.5,4.4l8.2-0.3l9.5,4.9l9.3-0.9"/>
								<path fill="#37474F" d="M78.3,74.4c-0.3,0-0.6-0.1-0.9-0.2l-9-4.7l-7.6,0.3c-2.2,0.1-7.6-3.1-9.2-5.2
									c-1.1-1.4-1.4-3.1-0.7-4.5c1.1-2.2,3.9-3.2,8.5-3.1l23.8-5.6c0.6-0.2,1.3-0.4,2-0.5l0.5-0.1c0.4-0.1,0.9-0.1,1.3,0.1
									c1.1,0.1,2.2,0.5,3.2,1.1l3.3-3.3c0.8-0.8,2-0.8,2.8,0c0.8,0.8,0.8,2,0,2.8L91.8,56c-0.8,0.8-2,0.8-2.8,0
									c-0.8-0.8-1.8-1.2-2.9-1.2c-0.1,0-0.1,0-0.2,0c-0.1,0-0.1,0-0.2,0c-0.4,0-0.8,0.1-1.2,0.3c-0.1,0-0.2,0.1-0.3,0.1L60,60.9
									c-0.2,0-0.4,0.1-0.5,0.1c-4.1-0.2-4.9,0.8-5,0.8c0,0,0,0.1,0.2,0.3c0,0,0.1,0.1,0.1,0.1c0.9,1.3,4.7,3.4,5.9,3.6l8.1-0.3
									c0.3,0,0.7,0.1,1,0.2l8.9,4.6l8.7-0.9c1.1-0.1,2.1,0.7,2.2,1.8c0.1,1.1-0.7,2.1-1.8,2.2l-9.3,0.9
									C78.4,74.4,78.3,74.4,78.3,74.4z"/>
							</g>
							<g>
								<path fill="#FFFFFF" d="M115.9,71l-5.7,5.7c2.4,2.4,1.8,6.9-0.6,9.3l-16,16"/>
								<path fill="#37474F" d="M93.5,104c-0.5,0-1-0.2-1.4-0.6c-0.8-0.8-0.8-2,0-2.8l16-16c1.6-1.6,2.2-4.8,0.6-6.5
									c-0.8-0.8-0.8-2,0-2.8l5.7-5.7c0.8-0.8,2-0.8,2.8,0s0.8,2,0,2.8l-4.5,4.5c1.8,3.4,0.7,7.9-1.8,10.5l-16,16
									C94.5,103.8,94,104,93.5,104z"/>
							</g>
						</g>
					</g>
				</g>
				<g>
					<polyline fill="#78909C" points="122.7,9.1 88.9,42.9 119.1,73.2 126.8,65.5 					"/>
					<path fill="#37474F" d="M119.1,75.2c-0.5,0-1-0.2-1.4-0.6L87.5,44.4c-0.4-0.4-0.6-0.9-0.6-1.4s0.2-1,0.6-1.4l33.8-33.8
						c0.8-0.8,2-0.8,2.8,0c0.8,0.8,0.8,2,0,2.8L91.7,42.9l27.4,27.4l6.3-6.3c0.8-0.8,2-0.8,2.8,0s0.8,2,0,2.8l-7.7,7.7
						C120.2,75,119.7,75.2,119.1,75.2z"/>
				</g>
			</g>
		</g>
		<g>
			<circle fill="#FFECB3" cx="119.2" cy="43.9" r="6.7"/>
			<path fill="#37474F" d="M119.2,52.6c-4.8,0-8.7-3.9-8.7-8.7c0-4.8,3.9-8.7,8.7-8.7c4.8,0,8.7,3.9,8.7,8.7
				C127.9,48.7,124,52.6,119.2,52.6z M119.2,39.3c-2.6,0-4.7,2.1-4.7,4.7c0,2.6,2.1,4.7,4.7,4.7c2.6,0,4.7-2.1,4.7-4.7
				C123.9,41.4,121.8,39.3,119.2,39.3z"/>
		</g>
	</g>
</g>
</svg>
