<?xml version="1.0" encoding="utf-8"?>
<!-- Generator: Adobe Illustrator 16.0.0, SVG Export Plug-In . SVG Version: 6.00 Build 0)  -->
<!DOCTYPE svg PUBLIC "-//W3C//DTD SVG 1.1//EN" "http://www.w3.org/Graphics/SVG/1.1/DTD/svg11.dtd">
<svg version="1.1" id="Layer_1" xmlns="http://www.w3.org/2000/svg" xmlns:xlink="http://www.w3.org/1999/xlink" x="0px" y="0px"
	 width="128px" height="128px" viewBox="0 0 128 128" enable-background="new 0 0 128 128" xml:space="preserve">
<g>
	<g>
		<g>
			<g>
				<path fill="#37474F" d="M113,124H21c-0.8,0-1.5-0.7-1.5-1.5s0.7-1.5,1.5-1.5h92c0.8,0,1.5,0.7,1.5,1.5S113.8,124,113,124z"/>
			</g>
			<g>
				<g>
					<rect x="89.5" y="32.5" fill="#FFAB00" width="16" height="90"/>
					<path fill="#37474F" d="M107,124H88V31h19V124z M91,121h13V34H91V121z"/>
				</g>
				<g>
					<rect x="89.5" y="60.5" fill="#37474F" width="16" height="62"/>
					<path fill="#37474F" d="M105.5,124h-16c-0.8,0-1.5-0.7-1.5-1.5v-62c0-0.8,0.7-1.5,1.5-1.5h16c0.8,0,1.5,0.7,1.5,1.5v62
						C107,123.3,106.3,124,105.5,124z M91,121h13V62H91V121z"/>
				</g>
				<g>
					<rect x="58.5" y="63.5" fill="#78909C" width="16" height="59"/>
					<path fill="#37474F" d="M76,124H57V62h19V124z M60,121h13V65H60V121z"/>
				</g>
				<g>
					<rect x="28.5" y="80.5" fill="#B0BEC5" width="16" height="42"/>
					<path fill="#37474F" d="M46,124H27V79h19V124z M30,121h13V82H30V121z"/>
				</g>
			</g>
		</g>
		<g>
			<polyline fill="#FFECB3" points="20.8,94 45,69.9 47.3,72.3 64.2,55.5 79.5,55.5 79.5,32.3 95.7,16.4 			"/>
			<path fill="#37474F" d="M20.8,95.5c-0.4,0-0.8-0.1-1.1-0.4c-0.6-0.6-0.6-1.5,0-2.1l24.2-24.2c0.3-0.3,0.7-0.4,1.1-0.4
				c0,0,0,0,0,0c0.4,0,0.8,0.2,1.1,0.5l1.3,1.3l15.9-15.7c0.3-0.3,0.7-0.4,1.1-0.4H78V32.3c0-0.4,0.2-0.8,0.4-1.1l16.2-15.9
				c0.6-0.6,1.5-0.6,2.1,0c0.6,0.6,0.6,1.5,0,2.1L81,33v22.5c0,0.8-0.7,1.5-1.5,1.5H64.9L48.3,73.4c-0.3,0.3-0.7,0.5-1.1,0.4
				c-0.4,0-0.8-0.2-1.1-0.5L44.9,72L21.9,95.1C21.6,95.4,21.2,95.5,20.8,95.5z"/>
		</g>
		<g>
			<path fill="#FFECB3" d="M23.2,95.5c0,2.2-1.8,4.1-4.1,4.1c-2.2,0-4.1-1.8-4.1-4.1c0-2.2,1.8-4,4.1-4
				C21.4,91.4,23.2,93.3,23.2,95.5z"/>
			<path fill="#37474F" d="M19.2,101.1c-3.1,0-5.6-2.5-5.6-5.6c0-3.1,2.5-5.5,5.6-5.5c3.1,0,5.6,2.5,5.6,5.5
				C24.8,98.6,22.3,101.1,19.2,101.1z M19.2,92.9c-1.4,0-2.6,1.1-2.6,2.5c0,1.4,1.1,2.6,2.6,2.6c1.4,0,2.6-1.1,2.6-2.6
				C21.8,94.1,20.6,92.9,19.2,92.9z"/>
		</g>
		<g>
			<polygon fill="#FFAB00" points="105.3,23.5 105.5,23.5 105.5,6.5 88.5,6.5 88.5,7.2 			"/>
			<path fill="#37474F" d="M107,25h-2.3L87,7.8V5h20V25z M91.5,8L104,20.2V8H91.5z"/>
		</g>
	</g>
	<g>
		<g>
			<path fill="#37474F" d="M28.9,66.2c0.6,0.6,0.6,1.6,0,2.2c-0.6,0.6-1.6,0.6-2.2,0c-0.6-0.6-0.6-1.6,0-2.2
				C27.3,65.6,28.3,65.6,28.9,66.2z"/>
			<path fill="#37474F" d="M27.8,69.3c-0.5,0-1.1-0.2-1.4-0.6c-0.4-0.4-0.6-0.9-0.6-1.4c0-0.6,0.2-1.1,0.6-1.5
				c0.8-0.8,2.1-0.8,2.9,0c0.4,0.4,0.6,0.9,0.6,1.4c0,0.6-0.2,1.1-0.6,1.4C28.9,69.1,28.4,69.3,27.8,69.3z M27.8,66.2
				c-0.3,0-0.5,0.1-0.7,0.3c-0.2,0.2-0.3,0.5-0.3,0.7c0,0.3,0.1,0.5,0.3,0.7c0.4,0.4,1.1,0.4,1.5,0c0.2-0.2,0.3-0.5,0.3-0.7
				c0-0.3-0.1-0.5-0.3-0.7C28.4,66.3,28.1,66.2,27.8,66.2z"/>
		</g>
		<g>
			<path fill="#37474F" d="M36.6,58.5c0.6,0.6,0.6,1.6,0,2.2c-0.6,0.6-1.6,0.6-2.2,0c-0.6-0.6-0.6-1.6,0-2.2
				C35,57.9,35.9,57.9,36.6,58.5z"/>
			<path fill="#37474F" d="M35.5,61.7c-0.5,0-1.1-0.2-1.4-0.6c-0.8-0.8-0.8-2.1,0-2.9c0.8-0.8,2.1-0.8,2.9,0c0.8,0.8,0.8,2.1,0,2.9
				C36.5,61.5,36,61.7,35.5,61.7z M35.5,58.6c-0.3,0-0.5,0.1-0.7,0.3c-0.4,0.4-0.4,1.1,0,1.5c0.4,0.4,1.1,0.4,1.5,0
				c0.4-0.4,0.4-1.1,0-1.5C36,58.7,35.7,58.6,35.5,58.6z"/>
		</g>
		<g>
			<path fill="#37474F" d="M44.2,50.9c0.6,0.6,0.6,1.6,0,2.2c-0.6,0.6-1.6,0.6-2.2,0c-0.6-0.6-0.6-1.6,0-2.2
				C42.6,50.3,43.6,50.3,44.2,50.9z"/>
			<path fill="#37474F" d="M43.1,54c-0.5,0-1.1-0.2-1.4-0.6c-0.4-0.4-0.6-0.9-0.6-1.5c0-0.6,0.2-1.1,0.6-1.4c0.8-0.8,2.1-0.8,2.9,0
				c0.4,0.4,0.6,0.9,0.6,1.4c0,0.6-0.2,1.1-0.6,1.4C44.2,53.8,43.6,54,43.1,54z M43.1,50.9c-0.3,0-0.5,0.1-0.7,0.3
				c-0.2,0.2-0.3,0.5-0.3,0.7c0,0.3,0.1,0.6,0.3,0.7c0.4,0.4,1.1,0.4,1.5,0c0.2-0.2,0.3-0.5,0.3-0.7c0-0.3-0.1-0.5-0.3-0.7
				C43.6,51.1,43.4,50.9,43.1,50.9z"/>
		</g>
	</g>
</g>
</svg>
