<?xml version="1.0" encoding="utf-8"?>
<!-- Generator: Adobe Illustrator 16.0.0, SVG Export Plug-In . SVG Version: 6.00 Build 0)  -->
<!DOCTYPE svg PUBLIC "-//W3C//DTD SVG 1.1//EN" "http://www.w3.org/Graphics/SVG/1.1/DTD/svg11.dtd">
<svg version="1.1" id="Layer_1" xmlns="http://www.w3.org/2000/svg" xmlns:xlink="http://www.w3.org/1999/xlink" x="0px" y="0px"
	 width="128px" height="128px" viewBox="0 0 128 128" enable-background="new 0 0 128 128" xml:space="preserve">
<g>
	<g>
		<rect x="31.5" y="10.5" fill="#78909C" stroke="#37474F" stroke-width="3" stroke-miterlimit="10" width="85" height="115"/>
		
			<rect x="23.5" y="2.5" fill="#FFFFFF" stroke="#37474F" stroke-width="3" stroke-linecap="round" stroke-linejoin="round" stroke-miterlimit="10" width="75" height="114"/>
		
			<rect x="33.5" y="2.5" fill="#FFFFFF" stroke="#37474F" stroke-width="3" stroke-linecap="round" stroke-linejoin="round" stroke-miterlimit="10" width="75" height="114"/>
		<g>
			
				<line fill="#FFAB00" stroke="#37474F" stroke-width="3" stroke-linecap="round" stroke-linejoin="round" stroke-miterlimit="10" x1="44" y1="100.5" x2="98" y2="100.5"/>
			
				<line fill="#FFAB00" stroke="#37474F" stroke-width="3" stroke-linecap="round" stroke-linejoin="round" stroke-miterlimit="10" x1="44" y1="86.5" x2="98" y2="86.5"/>
			
				<line fill="#FFAB00" stroke="#37474F" stroke-width="3" stroke-linecap="round" stroke-linejoin="round" stroke-miterlimit="10" x1="44" y1="71.5" x2="98" y2="71.5"/>
		</g>
		<g>
			
				<line fill="#FFAB00" stroke="#37474F" stroke-width="3" stroke-linecap="round" stroke-linejoin="round" stroke-miterlimit="10" x1="88" y1="51.5" x2="98" y2="51.5"/>
			
				<line fill="#FFAB00" stroke="#37474F" stroke-width="3" stroke-linecap="round" stroke-linejoin="round" stroke-miterlimit="10" x1="88" y1="36.5" x2="98" y2="36.5"/>
			
				<line fill="#FFAB00" stroke="#37474F" stroke-width="3" stroke-linecap="round" stroke-linejoin="round" stroke-miterlimit="10" x1="88" y1="22.5" x2="98" y2="22.5"/>
		</g>
		
			<rect x="45.5" y="20.5" fill="#FFAB00" stroke="#37474F" stroke-width="3" stroke-linecap="round" stroke-linejoin="round" stroke-miterlimit="10" width="33" height="37"/>
	</g>
	<g>
		<path fill="#37474F" stroke="#37474F" stroke-miterlimit="10" d="M12.3,73.2c-0.8,0-1.5,0.7-1.5,1.5c0,0.8,0.7,1.5,1.5,1.5
			c0.8,0,1.5-0.7,1.5-1.5C13.8,73.8,13.2,73.2,12.3,73.2z"/>
		<path fill="#37474F" stroke="#37474F" stroke-miterlimit="10" d="M12.3,62.8c-0.8,0-1.5,0.7-1.5,1.5c0,0.8,0.7,1.5,1.5,1.5
			c0.8,0,1.5-0.7,1.5-1.5C13.8,63.5,13.2,62.8,12.3,62.8z"/>
		<path fill="#37474F" stroke="#37474F" stroke-miterlimit="10" d="M12.3,52.4c-0.8,0-1.5,0.7-1.5,1.5c0,0.8,0.7,1.5,1.5,1.5
			c0.8,0,1.5-0.6,1.5-1.5C13.8,53.1,13.2,52.4,12.3,52.4z"/>
	</g>
</g>
</svg>
