<?xml version="1.0" encoding="utf-8"?>
<!-- Generator: Adobe Illustrator 16.0.0, SVG Export Plug-In . SVG Version: 6.00 Build 0)  -->
<!DOCTYPE svg PUBLIC "-//W3C//DTD SVG 1.1//EN" "http://www.w3.org/Graphics/SVG/1.1/DTD/svg11.dtd">
<svg version="1.1" id="Layer_1" xmlns="http://www.w3.org/2000/svg" xmlns:xlink="http://www.w3.org/1999/xlink" x="0px" y="0px"
	 width="128px" height="128px" viewBox="0 0 128 128" enable-background="new 0 0 128 128" xml:space="preserve">
<g>
	<g>
		<rect x="3.5" y="42.5" fill="#78909C" width="121" height="72"/>
		<path fill="#37474F" d="M124.5,116H3.5c-0.8,0-1.5-0.7-1.5-1.5v-72C2,41.7,2.7,41,3.5,41h121c0.8,0,1.5,0.7,1.5,1.5v72
			C126,115.3,125.3,116,124.5,116z M5,113h118V44H5V113z"/>
	</g>
	<g>
		<rect x="20.5" y="14.5" fill="#FFFFFF" width="88" height="66"/>
		<path fill="#37474F" d="M108.5,82h-88c-0.8,0-1.5-0.7-1.5-1.5v-66c0-0.8,0.7-1.5,1.5-1.5h88c0.8,0,1.5,0.7,1.5,1.5v66
			C110,81.3,109.3,82,108.5,82z M22,79h85V16H22V79z"/>
	</g>
	<g>
		<g>
			<line fill="#B0BEC5" x1="92" y1="37.5" x2="36" y2="37.5"/>
			<path fill="#B0BEC5" d="M92,39H36c-0.8,0-1.5-0.7-1.5-1.5S35.2,36,36,36h56c0.8,0,1.5,0.7,1.5,1.5S92.8,39,92,39z"/>
		</g>
		<g>
			<line fill="#B0BEC5" x1="92" y1="50.5" x2="36" y2="50.5"/>
			<path fill="#B0BEC5" d="M92,52H36c-0.8,0-1.5-0.7-1.5-1.5S35.2,49,36,49h56c0.8,0,1.5,0.7,1.5,1.5S92.8,52,92,52z"/>
		</g>
		<g>
			<line fill="#B0BEC5" x1="92" y1="62.5" x2="36" y2="62.5"/>
			<path fill="#B0BEC5" d="M92,64H36c-0.8,0-1.5-0.7-1.5-1.5S35.2,61,36,61h56c0.8,0,1.5,0.7,1.5,1.5S92.8,64,92,64z"/>
		</g>
		<g>
			<line fill="#B0BEC5" x1="92" y1="74.5" x2="36" y2="74.5"/>
			<path fill="#B0BEC5" d="M92,76H36c-0.8,0-1.5-0.7-1.5-1.5S35.2,73,36,73h56c0.8,0,1.5,0.7,1.5,1.5S92.8,76,92,76z"/>
		</g>
	</g>
	<g>
		<polyline fill="#FFAB00" points="125,114.5 3.5,114.5 3.5,43 125,114.6 		"/>
		<path fill="#37474F" d="M125,116H3.5c-0.8,0-1.5-0.7-1.5-1.5V43c0-0.5,0.3-1,0.8-1.3c0.5-0.3,1-0.3,1.5,0l121.5,71.6l-0.7,1.3V116
			z M5,113h114.3L5,45.6V113z"/>
	</g>
	<g>
		<polygon fill="#FFECB3" points="3.5,114.5 124.5,114.5 124.5,43 		"/>
		<path fill="#37474F" d="M124.5,116H3.5c-0.7,0-1.3-0.5-1.4-1.1c-0.2-0.7,0.1-1.3,0.7-1.7l121-71.5c0.5-0.3,1-0.3,1.5,0
			c0.5,0.3,0.8,0.8,0.8,1.3v71.5C126,115.3,125.3,116,124.5,116z M9,113h114V45.6L9,113z"/>
	</g>
	<g>
		<g>
			<path fill="#37474F" d="M19,79c0,0.7-0.6,1.3-1.4,1.3c-0.8,0-1.4-0.6-1.4-1.3c0-0.7,0.6-1.4,1.4-1.4C18.4,77.6,19,78.2,19,79z"/>
			<path fill="#37474F" d="M17.7,80.8c-1,0-1.9-0.8-1.9-1.8c0-1,0.8-1.9,1.9-1.9c1,0,1.9,0.8,1.9,1.9C19.5,80,18.7,80.8,17.7,80.8z
				 M17.7,78.1c-0.5,0-0.9,0.4-0.9,0.9c0,0.5,0.4,0.8,0.9,0.8c0.5,0,0.9-0.4,0.9-0.8C18.5,78.5,18.1,78.1,17.7,78.1z"/>
		</g>
		<g>
			<path fill="#37474F" d="M28.5,79c0,0.7-0.6,1.3-1.4,1.3s-1.4-0.6-1.4-1.3c0-0.7,0.6-1.4,1.4-1.4S28.5,78.2,28.5,79z"/>
			<path fill="#37474F" d="M27.1,80.8c-1,0-1.9-0.8-1.9-1.8c0-1,0.9-1.9,1.9-1.9c1,0,1.9,0.9,1.9,1.9C29,80,28.2,80.8,27.1,80.8z
				 M27.1,78.1c-0.5,0-0.9,0.4-0.9,0.9c0,0.5,0.4,0.8,0.9,0.8c0.5,0,0.9-0.4,0.9-0.8C28,78.5,27.6,78.1,27.1,78.1z"/>
		</g>
		<g>
			<path fill="#37474F" d="M38,79c0,0.7-0.6,1.3-1.4,1.3c-0.8,0-1.4-0.6-1.4-1.3c0-0.7,0.6-1.4,1.4-1.4C37.4,77.6,38,78.2,38,79z"/>
			<path fill="#37474F" d="M36.6,80.8c-1,0-1.9-0.8-1.9-1.8c0-1,0.8-1.9,1.9-1.9c1,0,1.9,0.9,1.9,1.9C38.5,80,37.7,80.8,36.6,80.8z
				 M36.6,78.1c-0.5,0-0.9,0.4-0.9,0.9c0,0.5,0.4,0.8,0.9,0.8c0.5,0,0.9-0.4,0.9-0.8C37.5,78.5,37.1,78.1,36.6,78.1z"/>
		</g>
	</g>
	<g>
		<g>
			<path fill="#78909C" d="M111.5,88.4c0,7.8-6.3,14.1-14.1,14.1c-7.8,0-14.1-6.3-14.1-14.1c0-7.8,6.3-14.1,14.1-14.1
				C105.2,74.3,111.5,80.6,111.5,88.4z"/>
			<path fill="#37474F" d="M97.4,103.9c-8.6,0-15.6-7-15.6-15.6c0-8.6,7-15.6,15.6-15.6c8.6,0,15.6,7,15.6,15.6
				C113,97,106,103.9,97.4,103.9z M97.4,75.8c-7,0-12.6,5.7-12.6,12.6c0,6.9,5.7,12.6,12.6,12.6c6.9,0,12.6-5.6,12.6-12.6
				C110,81.4,104.4,75.8,97.4,75.8z"/>
		</g>
		<g>
			<path fill="#B0BEC5" d="M103.1,88.4c0,3.1-2.5,5.6-5.6,5.6c-3.1,0-5.6-2.5-5.6-5.6c0-3.1,2.5-5.6,5.6-5.6
				C100.5,82.7,103.1,85.2,103.1,88.4z"/>
			<path fill="#37474F" d="M97.4,95.5c-3.9,0-7.1-3.2-7.1-7.1c0-3.9,3.2-7.1,7.1-7.1c3.9,0,7.1,3.2,7.1,7.1
				C104.6,92.3,101.4,95.5,97.4,95.5z M97.4,84.2c-2.3,0-4.1,1.9-4.1,4.1c0,2.3,1.9,4.1,4.1,4.1c2.3,0,4.1-1.9,4.1-4.1
				C101.6,86.1,99.7,84.2,97.4,84.2z"/>
		</g>
	</g>
</g>
</svg>
