<?xml version="1.0" encoding="utf-8"?>
<!-- Generator: Adobe Illustrator 16.0.0, SVG Export Plug-In . SVG Version: 6.00 Build 0)  -->
<!DOCTYPE svg PUBLIC "-//W3C//DTD SVG 1.1//EN" "http://www.w3.org/Graphics/SVG/1.1/DTD/svg11.dtd">
<svg version="1.1" id="Layer_1" xmlns="http://www.w3.org/2000/svg" xmlns:xlink="http://www.w3.org/1999/xlink" x="0px" y="0px"
	 width="128px" height="128px" viewBox="0 0 128 128" enable-background="new 0 0 128 128" xml:space="preserve">
<g>
	<g>
		<g>
			<rect x="3" y="12" fill="#FFECB3" width="74" height="104"/>
			<path fill="#37474F" d="M77,118H3c-1.1,0-2-0.9-2-2V12c0-1.1,0.9-2,2-2h74c1.1,0,2,0.9,2,2v104C79,117.1,78.1,118,77,118z M5,114
				h70V14H5V114z"/>
		</g>
		<g>
			<g>
				<line fill="#FFFFFF" x1="19" y1="30" x2="61" y2="30"/>
				<path fill="#37474F" d="M61,32H19c-1.1,0-2-0.9-2-2s0.9-2,2-2h42c1.1,0,2,0.9,2,2S62.1,32,61,32z"/>
			</g>
			<g>
				<line fill="#FFFFFF" x1="19" y1="47" x2="61" y2="47"/>
				<path fill="#37474F" d="M61,49H19c-1.1,0-2-0.9-2-2s0.9-2,2-2h42c1.1,0,2,0.9,2,2S62.1,49,61,49z"/>
			</g>
			<g>
				<line fill="#FFFFFF" x1="19" y1="64" x2="61" y2="64"/>
				<path fill="#37474F" d="M61,66H19c-1.1,0-2-0.9-2-2s0.9-2,2-2h42c1.1,0,2,0.9,2,2S62.1,66,61,66z"/>
			</g>
			<g>
				<line fill="#FFFFFF" x1="19" y1="81" x2="61" y2="81"/>
				<path fill="#37474F" d="M61,83H19c-1.1,0-2-0.9-2-2s0.9-2,2-2h42c1.1,0,2,0.9,2,2S62.1,83,61,83z"/>
			</g>
			<g>
				<line fill="#FFFFFF" x1="19" y1="98" x2="61" y2="98"/>
				<path fill="#37474F" d="M61,100H19c-1.1,0-2-0.9-2-2s0.9-2,2-2h42c1.1,0,2,0.9,2,2S62.1,100,61,100z"/>
			</g>
		</g>
	</g>
	<g>
		<g>
			<g>
				<g>
					<circle fill="#FFFFFF" cx="65.7" cy="57" r="32"/>
					<path fill="#37474F" d="M65.7,91c-9.1,0-17.6-3.5-24-10c-6.4-6.4-10-15-10-24s3.5-17.6,10-24c6.4-6.4,15-10,24-10
						s17.6,3.5,24,10c6.4,6.4,10,15,10,24s-3.5,17.6-10,24C83.4,87.5,74.8,91,65.7,91z M65.7,27c-8,0-15.5,3.1-21.2,8.8
						C38.9,41.5,35.8,49,35.8,57c0,8,3.1,15.5,8.8,21.2c5.7,5.7,13.2,8.8,21.2,8.8s15.5-3.1,21.2-8.8c5.7-5.7,8.8-13.2,8.8-21.2
						c0-8-3.1-15.5-8.8-21.2C81.3,30.1,73.8,27,65.7,27z"/>
				</g>
				<g>
					<line fill="#FFFFFF" x1="96.6" y1="87.8" x2="89.3" y2="80.5"/>
					<path fill="#37474F" d="M96.6,89.8c-0.5,0-1-0.2-1.4-0.6L87.9,82c-0.8-0.8-0.8-2,0-2.8s2-0.8,2.8,0l7.3,7.3
						c0.8,0.8,0.8,2,0,2.8C97.6,89.6,97.1,89.8,96.6,89.8z"/>
				</g>
			</g>
			<g>
				<path fill="#78909C" d="M122.8,105.2c2.4,2.4,2.4,6.4,0,8.8l0,0c-2.4,2.4-6.4,2.4-8.8,0L96.8,96.9c-2.4-2.4-2.4-6.4,0-8.8l0,0
					c2.4-2.4,6.4-2.4,8.8,0L122.8,105.2z"/>
				<path fill="#37474F" d="M118.4,117.9c-2.2,0-4.3-0.9-5.8-2.4L95.4,98.3c-1.6-1.6-2.4-3.6-2.4-5.8s0.9-4.3,2.4-5.8
					c1.6-1.6,3.6-2.4,5.8-2.4s4.3,0.9,5.8,2.4l17.2,17.2c3.2,3.2,3.2,8.5,0,11.7C122.7,117,120.6,117.9,118.4,117.9z M101.2,88.2
					c-1.1,0-2.2,0.4-3,1.2c-0.8,0.8-1.2,1.9-1.2,3s0.4,2.2,1.2,3l17.2,17.2c0.8,0.8,1.9,1.2,3,1.2s2.2-0.4,3-1.2
					c1.7-1.7,1.7-4.4,0-6l-17.2-17.2C103.4,88.7,102.4,88.2,101.2,88.2z"/>
			</g>
		</g>
		<g>
			<line fill="#FFFFFF" x1="87" y1="35" x2="87" y2="79"/>
			<path fill="#37474F" d="M87,81c-1.1,0-2-0.9-2-2V35c0-1.1,0.9-2,2-2s2,0.9,2,2v44C89,80.1,88.1,81,87,81z"/>
		</g>
	</g>
</g>
</svg>
