<?xml version="1.0" encoding="utf-8"?>
<!-- Generator: Adobe Illustrator 16.0.0, SVG Export Plug-In . SVG Version: 6.00 Build 0)  -->
<!DOCTYPE svg PUBLIC "-//W3C//DTD SVG 1.1//EN" "http://www.w3.org/Graphics/SVG/1.1/DTD/svg11.dtd">
<svg version="1.1" id="Layer_1" xmlns="http://www.w3.org/2000/svg" xmlns:xlink="http://www.w3.org/1999/xlink" x="0px" y="0px"
	 width="128px" height="128px" viewBox="0 0 128 128" enable-background="new 0 0 128 128" xml:space="preserve">
<g>
	<g>
		<g>
			<g>
				<rect x="12.5" y="18.5" fill="#FFAB00" width="103" height="28"/>
			</g>
			<g>
				<path fill="#37474F" d="M115.5,48h-103c-0.8,0-1.5-0.7-1.5-1.5v-28c0-0.8,0.7-1.5,1.5-1.5h103c0.8,0,1.5,0.7,1.5,1.5v28
					C117,47.3,116.3,48,115.5,48z M14,45h100V20H14V45z"/>
			</g>
		</g>
		<g>
			<g>
				<rect x="5.5" y="9.5" fill="#FFFFFF" width="116" height="29"/>
			</g>
			<g>
				<path fill="#37474F" d="M121.5,40H5.5C4.7,40,4,39.3,4,38.5v-29C4,8.7,4.7,8,5.5,8h116c0.8,0,1.5,0.7,1.5,1.5v29
					C123,39.3,122.3,40,121.5,40z M7,37h113V11H7V37z"/>
			</g>
		</g>
		<g>
			<g>
				<g>
					<polyline fill="#FFAB00" points="17.5,20 17.5,28.5 21,28.5 					"/>
				</g>
				<g>
					<path fill="#37474F" d="M21,30h-3.5c-0.8,0-1.5-0.7-1.5-1.5V20c0-0.8,0.7-1.5,1.5-1.5S19,19.2,19,20v7h2c0.8,0,1.5,0.7,1.5,1.5
						S21.8,30,21,30z"/>
				</g>
			</g>
			<g>
				<g>
					<polyline fill="#FFAB00" points="23.5,20 23.5,28.5 28,28.5 					"/>
				</g>
				<g>
					<path fill="#37474F" d="M28,30h-4.5c-0.8,0-1.5-0.7-1.5-1.5V20c0-0.8,0.7-1.5,1.5-1.5S25,19.2,25,20v7h3c0.8,0,1.5,0.7,1.5,1.5
						S28.8,30,28,30z"/>
				</g>
			</g>
			<g>
				<g>
					<polyline fill="#FFAB00" points="29.5,20 29.5,28.5 34,28.5 					"/>
				</g>
				<g>
					<path fill="#37474F" d="M34,30h-4.5c-0.8,0-1.5-0.7-1.5-1.5V20c0-0.8,0.7-1.5,1.5-1.5S31,19.2,31,20v7h3c0.8,0,1.5,0.7,1.5,1.5
						S34.8,30,34,30z"/>
				</g>
			</g>
		</g>
		<g>
			<g>
				<line fill="#FFAB00" x1="79" y1="24.5" x2="112" y2="24.5"/>
			</g>
			<g>
				<path fill="#37474F" d="M112,26H79c-0.8,0-1.5-0.7-1.5-1.5S78.2,23,79,23h33c0.8,0,1.5,0.7,1.5,1.5S112.8,26,112,26z"/>
			</g>
		</g>
		<g>
			<g>
				<path fill="#FFAB00" d="M116.3,24.5c0,3.2-2.6,5.7-5.7,5.7c-3.2,0-5.7-2.6-5.7-5.7c0-3.2,2.6-5.7,5.7-5.7
					C113.7,18.8,116.3,21.4,116.3,24.5z"/>
			</g>
			<g>
				<path fill="#37474F" d="M110.6,31.7c-4,0-7.2-3.2-7.2-7.2c0-4,3.2-7.2,7.2-7.2s7.2,3.2,7.2,7.2
					C117.8,28.5,114.5,31.7,110.6,31.7z M110.6,20.3c-2.3,0-4.2,1.9-4.2,4.2c0,2.3,1.9,4.2,4.2,4.2c2.3,0,4.2-1.9,4.2-4.2
					C114.8,22.2,112.9,20.3,110.6,20.3z"/>
			</g>
		</g>
		<g>
			<g>
				<g>
					<path fill="#37474F" d="M64.9,24.5c0-1,0.8-1.8,1.7-1.8c1,0,1.8,0.8,1.8,1.8c0,1-0.8,1.7-1.8,1.7
						C65.7,26.3,64.9,25.5,64.9,24.5z"/>
				</g>
				<g>
					<path fill="#37474F" d="M66.6,26.8c-1.2,0-2.2-1-2.2-2.2c0-1.2,1-2.3,2.2-2.3c1.3,0,2.3,1,2.3,2.3
						C68.9,25.8,67.9,26.8,66.6,26.8z M66.6,23.3c-0.7,0-1.2,0.6-1.2,1.3c0,0.7,0.6,1.2,1.2,1.2c0.7,0,1.3-0.6,1.3-1.2
						C67.9,23.8,67.3,23.3,66.6,23.3z"/>
				</g>
			</g>
			<g>
				<g>
					<path fill="#37474F" d="M52.6,24.5c0-1,0.8-1.8,1.8-1.8c1,0,1.8,0.8,1.8,1.8c0,1-0.8,1.7-1.8,1.7
						C53.4,26.3,52.6,25.5,52.6,24.5z"/>
				</g>
				<g>
					<path fill="#37474F" d="M54.4,26.8c-1.3,0-2.3-1-2.3-2.2c0-1.2,1-2.3,2.3-2.3c1.2,0,2.3,1,2.3,2.3
						C56.6,25.8,55.6,26.8,54.4,26.8z M54.4,23.3c-0.7,0-1.3,0.6-1.3,1.3c0,0.7,0.6,1.2,1.3,1.2c0.7,0,1.3-0.6,1.3-1.2
						C55.6,23.8,55,23.3,54.4,23.3z"/>
				</g>
			</g>
			<g>
				<g>
					<path fill="#37474F" d="M40.3,24.5c0-1,0.8-1.8,1.7-1.8c1,0,1.8,0.8,1.8,1.8c0,1-0.8,1.7-1.8,1.7
						C41.1,26.3,40.3,25.5,40.3,24.5z"/>
				</g>
				<g>
					<path fill="#37474F" d="M42,26.8c-1.2,0-2.2-1-2.2-2.2c0-1.2,1-2.3,2.2-2.3c1.3,0,2.3,1,2.3,2.3C44.3,25.8,43.3,26.8,42,26.8z
						 M42,23.3c-0.7,0-1.2,0.6-1.2,1.3c0,0.7,0.6,1.2,1.2,1.2c0.7,0,1.3-0.6,1.3-1.2C43.3,23.8,42.8,23.3,42,23.3z"/>
				</g>
			</g>
		</g>
	</g>
	<g>
		<g>
			<g>
				<rect x="12.5" y="54.5" fill="#FFAB00" width="103" height="28"/>
			</g>
			<g>
				<path fill="#37474F" d="M115.5,84h-103c-0.8,0-1.5-0.7-1.5-1.5v-28c0-0.8,0.7-1.5,1.5-1.5h103c0.8,0,1.5,0.7,1.5,1.5v28
					C117,83.3,116.3,84,115.5,84z M14,81h100V56H14V81z"/>
			</g>
		</g>
		<g>
			<g>
				<rect x="5.5" y="46.5" fill="#FFFFFF" width="116" height="29"/>
			</g>
			<g>
				<path fill="#37474F" d="M121.5,77H5.5C4.7,77,4,76.3,4,75.5v-29C4,45.7,4.7,45,5.5,45h116c0.8,0,1.5,0.7,1.5,1.5v29
					C123,76.3,122.3,77,121.5,77z M7,74h113V48H7V74z"/>
			</g>
		</g>
		<g>
			<g>
				<g>
					<polyline fill="#FFAB00" points="17.5,57 17.5,65.5 21,65.5 					"/>
				</g>
				<g>
					<path fill="#37474F" d="M21,67h-3.5c-0.8,0-1.5-0.7-1.5-1.5V57c0-0.8,0.7-1.5,1.5-1.5S19,56.2,19,57v7h2c0.8,0,1.5,0.7,1.5,1.5
						S21.8,67,21,67z"/>
				</g>
			</g>
			<g>
				<g>
					<polyline fill="#FFAB00" points="23.5,57 23.5,65.5 28,65.5 					"/>
				</g>
				<g>
					<path fill="#37474F" d="M28,67h-4.5c-0.8,0-1.5-0.7-1.5-1.5V57c0-0.8,0.7-1.5,1.5-1.5S25,56.2,25,57v7h3c0.8,0,1.5,0.7,1.5,1.5
						S28.8,67,28,67z"/>
				</g>
			</g>
			<g>
				<g>
					<polyline fill="#FFAB00" points="29.5,57 29.5,65.5 34,65.5 					"/>
				</g>
				<g>
					<path fill="#37474F" d="M34,67h-4.5c-0.8,0-1.5-0.7-1.5-1.5V57c0-0.8,0.7-1.5,1.5-1.5S31,56.2,31,57v7h3c0.8,0,1.5,0.7,1.5,1.5
						S34.8,67,34,67z"/>
				</g>
			</g>
		</g>
		<g>
			<g>
				<line fill="#FFAB00" x1="79" y1="60.5" x2="112" y2="60.5"/>
			</g>
			<g>
				<path fill="#37474F" d="M112,62H79c-0.8,0-1.5-0.7-1.5-1.5S78.2,59,79,59h33c0.8,0,1.5,0.7,1.5,1.5S112.8,62,112,62z"/>
			</g>
		</g>
		<g>
			<g>
				<path fill="#FFAB00" d="M116.3,61.1c0,3.2-2.6,5.7-5.7,5.7c-3.2,0-5.7-2.6-5.7-5.7c0-3.2,2.6-5.7,5.7-5.7
					C113.7,55.4,116.3,57.9,116.3,61.1z"/>
			</g>
			<g>
				<path fill="#37474F" d="M110.6,68.3c-4,0-7.2-3.2-7.2-7.2c0-4,3.2-7.2,7.2-7.2s7.2,3.2,7.2,7.2
					C117.8,65.1,114.5,68.3,110.6,68.3z M110.6,56.9c-2.3,0-4.2,1.9-4.2,4.2c0,2.3,1.9,4.2,4.2,4.2c2.3,0,4.2-1.9,4.2-4.2
					C114.8,58.8,112.9,56.9,110.6,56.9z"/>
			</g>
		</g>
		<g>
			<g>
				<g>
					<path fill="#37474F" d="M64.9,61.1c0-0.9,0.8-1.8,1.7-1.8c1,0,1.8,0.8,1.8,1.8c0,1-0.8,1.8-1.8,1.8
						C65.7,62.9,64.9,62.1,64.9,61.1z"/>
				</g>
				<g>
					<path fill="#37474F" d="M66.6,63.4c-1.2,0-2.2-1-2.2-2.3c0-1.2,1-2.3,2.2-2.3c1.3,0,2.3,1,2.3,2.3
						C68.9,62.4,67.9,63.4,66.6,63.4z M66.6,59.8c-0.7,0-1.2,0.6-1.2,1.3c0,0.7,0.6,1.3,1.2,1.3c0.7,0,1.3-0.6,1.3-1.3
						C67.9,60.4,67.3,59.8,66.6,59.8z"/>
				</g>
			</g>
			<g>
				<g>
					<path fill="#37474F" d="M52.6,61.1c0-0.9,0.8-1.8,1.8-1.8c1,0,1.8,0.8,1.8,1.8c0,1-0.8,1.8-1.8,1.8
						C53.4,62.9,52.6,62.1,52.6,61.1z"/>
				</g>
				<g>
					<path fill="#37474F" d="M54.4,63.4c-1.2,0-2.3-1-2.3-2.3c0-1.2,1-2.3,2.3-2.3c1.2,0,2.3,1,2.3,2.3
						C56.6,62.4,55.6,63.4,54.4,63.4z M54.4,59.8c-0.7,0-1.3,0.6-1.3,1.3c0,0.7,0.6,1.3,1.3,1.3c0.7,0,1.3-0.6,1.3-1.3
						C55.6,60.4,55,59.8,54.4,59.8z"/>
				</g>
			</g>
			<g>
				<g>
					<path fill="#37474F" d="M40.3,61.1c0-0.9,0.8-1.8,1.7-1.8c1,0,1.8,0.8,1.8,1.8c0,1-0.8,1.8-1.8,1.8
						C41.1,62.9,40.3,62.1,40.3,61.1z"/>
				</g>
				<g>
					<path fill="#37474F" d="M42,63.4c-1.2,0-2.2-1-2.2-2.3c0-1.2,1-2.3,2.2-2.3c1.3,0,2.3,1,2.3,2.3C44.3,62.4,43.3,63.4,42,63.4z
						 M42,59.8c-0.7,0-1.2,0.6-1.2,1.3c0,0.7,0.6,1.3,1.2,1.3c0.7,0,1.3-0.6,1.3-1.3C43.3,60.4,42.7,59.8,42,59.8z"/>
				</g>
			</g>
		</g>
	</g>
	<g>
		<g>
			<g>
				<rect x="12.5" y="91.5" fill="#FFAB00" width="103" height="28"/>
			</g>
			<g>
				<path fill="#37474F" d="M115.5,121h-103c-0.8,0-1.5-0.7-1.5-1.5v-28c0-0.8,0.7-1.5,1.5-1.5h103c0.8,0,1.5,0.7,1.5,1.5v28
					C117,120.3,116.3,121,115.5,121z M14,118h100V93H14V118z"/>
			</g>
		</g>
		<g>
			<g>
				<rect x="5.5" y="82.5" fill="#FFFFFF" width="116" height="29"/>
			</g>
			<g>
				<path fill="#37474F" d="M121.5,113H5.5c-0.8,0-1.5-0.7-1.5-1.5v-29C4,81.7,4.7,81,5.5,81h116c0.8,0,1.5,0.7,1.5,1.5v29
					C123,112.3,122.3,113,121.5,113z M7,110h113V84H7V110z"/>
			</g>
		</g>
		<g>
			<g>
				<g>
					<polyline fill="#FFAB00" points="17.5,93 17.5,101.5 21,101.5 					"/>
				</g>
				<g>
					<path fill="#37474F" d="M21,103h-3.5c-0.8,0-1.5-0.7-1.5-1.5V93c0-0.8,0.7-1.5,1.5-1.5S19,92.2,19,93v7h2
						c0.8,0,1.5,0.7,1.5,1.5S21.8,103,21,103z"/>
				</g>
			</g>
			<g>
				<g>
					<polyline fill="#FFAB00" points="23.5,93 23.5,101.5 28,101.5 					"/>
				</g>
				<g>
					<path fill="#37474F" d="M28,103h-4.5c-0.8,0-1.5-0.7-1.5-1.5V93c0-0.8,0.7-1.5,1.5-1.5S25,92.2,25,93v7h3
						c0.8,0,1.5,0.7,1.5,1.5S28.8,103,28,103z"/>
				</g>
			</g>
			<g>
				<g>
					<polyline fill="#FFAB00" points="29.5,93 29.5,101.5 34,101.5 					"/>
				</g>
				<g>
					<path fill="#37474F" d="M34,103h-4.5c-0.8,0-1.5-0.7-1.5-1.5V93c0-0.8,0.7-1.5,1.5-1.5S31,92.2,31,93v7h3
						c0.8,0,1.5,0.7,1.5,1.5S34.8,103,34,103z"/>
				</g>
			</g>
		</g>
		<g>
			<g>
				<line fill="#FFAB00" x1="79" y1="97.5" x2="112" y2="97.5"/>
			</g>
			<g>
				<path fill="#37474F" d="M112,99H79c-0.8,0-1.5-0.7-1.5-1.5S78.2,96,79,96h33c0.8,0,1.5,0.7,1.5,1.5S112.8,99,112,99z"/>
			</g>
		</g>
		<g>
			<g>
				<path fill="#FFAB00" d="M116.3,97.7c0,3.2-2.6,5.7-5.7,5.7c-3.2,0-5.7-2.6-5.7-5.7c0-3.2,2.6-5.7,5.7-5.7
					C113.7,92,116.3,94.5,116.3,97.7z"/>
			</g>
			<g>
				<path fill="#37474F" d="M110.6,104.9c-4,0-7.2-3.2-7.2-7.2c0-4,3.2-7.2,7.2-7.2s7.2,3.2,7.2,7.2
					C117.8,101.7,114.5,104.9,110.6,104.9z M110.6,93.5c-2.3,0-4.2,1.9-4.2,4.2c0,2.3,1.9,4.2,4.2,4.2c2.3,0,4.2-1.9,4.2-4.2
					C114.8,95.4,112.9,93.5,110.6,93.5z"/>
			</g>
		</g>
		<g>
			<g>
				<g>
					<path fill="#37474F" d="M64.9,97.7c0-1,0.8-1.7,1.7-1.7c1,0,1.8,0.8,1.8,1.7c0,1-0.8,1.8-1.8,1.8
						C65.7,99.5,64.9,98.7,64.9,97.7z"/>
				</g>
				<g>
					<path fill="#37474F" d="M66.6,100c-1.2,0-2.2-1-2.2-2.2c0-1.2,1-2.2,2.2-2.2c1.3,0,2.3,1,2.3,2.2C68.9,98.9,67.9,100,66.6,100z
						 M66.6,96.5c-0.7,0-1.2,0.6-1.2,1.2c0,0.7,0.6,1.2,1.2,1.2c0.7,0,1.3-0.6,1.3-1.2C67.9,97,67.3,96.5,66.6,96.5z"/>
				</g>
			</g>
			<g>
				<g>
					<path fill="#37474F" d="M52.6,97.7c0-1,0.8-1.7,1.8-1.7c1,0,1.8,0.8,1.8,1.7c0,1-0.8,1.8-1.8,1.8
						C53.4,99.5,52.6,98.7,52.6,97.7z"/>
				</g>
				<g>
					<path fill="#37474F" d="M54.4,100c-1.2,0-2.3-1-2.3-2.2c0-1.2,1-2.2,2.3-2.2c1.2,0,2.3,1,2.3,2.2C56.6,98.9,55.6,100,54.4,100z
						 M54.4,96.5c-0.7,0-1.3,0.6-1.3,1.2c0,0.7,0.6,1.2,1.3,1.2c0.7,0,1.3-0.6,1.3-1.2C55.6,97,55,96.5,54.4,96.5z"/>
				</g>
			</g>
			<g>
				<g>
					<path fill="#37474F" d="M40.3,97.7c0-1,0.8-1.7,1.7-1.7c1,0,1.8,0.8,1.8,1.7c0,1-0.8,1.8-1.8,1.8
						C41.1,99.5,40.3,98.7,40.3,97.7z"/>
				</g>
				<g>
					<path fill="#37474F" d="M42,100c-1.2,0-2.2-1-2.2-2.2c0-1.2,1-2.2,2.2-2.2c1.3,0,2.3,1,2.3,2.2C44.3,98.9,43.3,100,42,100z
						 M42,96.5c-0.7,0-1.2,0.6-1.2,1.2c0,0.7,0.6,1.2,1.2,1.2c0.7,0,1.3-0.6,1.3-1.2C43.3,97,42.8,96.5,42,96.5z"/>
				</g>
			</g>
		</g>
	</g>
</g>
</svg>
