<?xml version="1.0" encoding="utf-8"?>
<!-- Generator: Adobe Illustrator 16.0.0, SVG Export Plug-In . SVG Version: 6.00 Build 0)  -->
<!DOCTYPE svg PUBLIC "-//W3C//DTD SVG 1.1//EN" "http://www.w3.org/Graphics/SVG/1.1/DTD/svg11.dtd">
<svg version="1.1" id="Layer_1" xmlns="http://www.w3.org/2000/svg" xmlns:xlink="http://www.w3.org/1999/xlink" x="0px" y="0px"
	 width="128px" height="128px" viewBox="0 0 128 128" enable-background="new 0 0 128 128" xml:space="preserve">
<g>
	<g>
		<g>
			<polygon fill="#FFECB3" points="44.8,122.5 17.5,95.4 17.5,56.4 44.8,28.5 83.8,28.5 111.5,56.4 111.5,95.4 83.8,122.5 			"/>
			<path fill="#37474F" d="M83.8,124h-39c-0.4,0-0.8-0.2-1.1-0.4L16.4,96.4c-0.3-0.3-0.4-0.7-0.4-1.1v-39c0-0.4,0.2-0.8,0.4-1
				l27.3-27.9c0.3-0.3,0.7-0.5,1.1-0.5h39c0.4,0,0.8,0.2,1.1,0.4l27.7,27.9c0.3,0.3,0.4,0.7,0.4,1.1v39c0,0.4-0.2,0.8-0.5,1.1
				l-27.7,27.1C84.5,123.8,84.1,124,83.8,124z M45.4,121h37.8L110,94.7V57L83.1,30H45.4L19,57v37.8L45.4,121z"/>
		</g>
		<g>
			<g>
				<g>
					<path fill="#37474F" d="M83.4,47.5c-1.7-10-9.6-16.1-19.2-16.1c-9.6,0-17.5,6.1-19.2,16.1H83.4z"/>
					<path fill="#37474F" d="M83.4,49H45.1c-0.4,0-0.9-0.2-1.1-0.5c-0.3-0.3-0.4-0.8-0.3-1.2c1.8-10.4,10.1-17.3,20.7-17.3
						c10.6,0,18.9,7,20.7,17.4c0.1,0.4,0,0.9-0.3,1.2C84.3,48.8,83.9,49,83.4,49z M46.9,46h34.7c-2.1-8-8.7-13.1-17.3-13.1
						C55.6,32.9,49,38,46.9,46z"/>
				</g>
				<g>
					<path fill="#FFECB3" d="M74.5,23.2c0,5.6-4.4,10.1-10,10.1l0,0c-5.6,0-10-4.5-10-10.1v-5c0-5.6,4.4-10.1,10-10.1l0,0
						c5.6,0,10,4.5,10,10.1V23.2z"/>
					<path fill="#37474F" d="M64.5,34.8c-6.3,0-11.5-5.2-11.5-11.6v-5c0-6.4,5.2-11.6,11.5-11.6c6.3,0,11.5,5.2,11.5,11.6v5
						C76,29.6,70.8,34.8,64.5,34.8z M64.5,9.6c-4.7,0-8.5,3.9-8.5,8.6v5c0,4.7,3.8,8.6,8.5,8.6c4.7,0,8.5-3.9,8.5-8.6v-5
						C73,13.4,69.2,9.6,64.5,9.6z"/>
				</g>
				<g>
					<path fill="#37474F" d="M57.8,18.4c3.7-0.4,8.2-1.4,11.2-4.1c0,0,1.5,1.6,3.8,2.9c0.9-0.8,1.7-1.7,1.7-2.7V12
						c0-2.9-4.4-5.2-10-5.2c-5.6,0-10,2.3-10,5.2v2.5C54.5,16.1,55.7,17.5,57.8,18.4z"/>
					<path fill="#37474F" d="M57.8,19.9c-0.2,0-0.4,0-0.6-0.1c-3.6-1.7-4.2-4-4.2-5.2V12c0-3.8,4.9-6.7,11.5-6.7
						C71.1,5.3,76,8.2,76,12v2.5c0,2-1.7,3.4-2.2,3.8c-0.5,0.4-1.1,0.5-1.7,0.2c-1.3-0.7-2.4-1.6-3.2-2.2c-2.6,1.9-6.3,3.1-11,3.6
						C57.9,19.9,57.9,19.9,57.8,19.9z M64.5,8.3c-4.9,0-8.5,1.9-8.5,3.7v2.5c0,1.1,1.3,1.9,2.1,2.3c4.5-0.5,7.8-1.7,9.9-3.7
						c0.6-0.6,1.6-0.5,2.1,0.1c0,0,1,1,2.5,2c0.3-0.4,0.4-0.6,0.4-0.8V12C73,10.3,69.4,8.3,64.5,8.3z"/>
				</g>
				<g>
					<polygon fill="#FFFFFF" points="64.3,42.1 61.8,39.6 64.3,37.1 66.8,39.6 					"/>
				</g>
			</g>
			<g>
				<g>
					<g>
						<path fill="#37474F" d="M42.9,122.5c-1.7-10-9.6-16.1-19.2-16.1s-17.5,6.1-19.2,16.1H42.9z"/>
						<path fill="#37474F" d="M42.9,124H4.6c-0.4,0-0.9-0.2-1.1-0.5c-0.3-0.3-0.4-0.8-0.3-1.2c1.8-10.4,10.1-17.3,20.7-17.3
							c10.6,0,18.9,7,20.7,17.4c0.1,0.4,0,0.9-0.3,1.2C43.8,123.8,43.4,124,42.9,124z M6.4,121h34.7c-2.1-8-8.7-13.1-17.3-13.1
							C15.1,107.9,8.5,113,6.4,121z"/>
					</g>
					<g>
						<path fill="#FFECB3" d="M33.5,98.2c0,5.6-4.4,10.1-10,10.1l0,0c-5.6,0-10-4.5-10-10.1v-5c0-5.6,4.4-10.1,10-10.1l0,0
							c5.6,0,10,4.5,10,10.1V98.2z"/>
						<path fill="#37474F" d="M23.5,109.8c-6.3,0-11.5-5.2-11.5-11.6v-5c0-6.4,5.2-11.6,11.5-11.6c6.3,0,11.5,5.2,11.5,11.6v5
							C35,104.6,29.8,109.8,23.5,109.8z M23.5,84.6c-4.8,0-8.5,3.8-8.5,8.6v5c0,4.7,3.8,8.6,8.5,8.6c4.7,0,8.5-3.9,8.5-8.6v-5
							C32,88.5,28.2,84.6,23.5,84.6z"/>
					</g>
					<g>
						<path fill="#37474F" d="M17,93.4c3.7-0.3,8.4-1.3,11.3-4.1c0,0,1.3,1.6,3.6,2.9c0.9-0.8,1.5-1.6,1.5-2.6v-2.5
							c0-2.9-4.4-5.2-10-5.2c-5.6,0-10,2.3-10,5.2v2.5C13.5,91.1,15,92.5,17,93.4z"/>
						<path fill="#37474F" d="M17,94.9c-0.2,0-0.4,0-0.6-0.1c-2.9-1.3-4.4-3.1-4.4-5.2v-2.5c0-3.8,4.9-6.7,11.5-6.7
							c6.6,0,11.5,2.9,11.5,6.7v2.5c0,1-0.4,2.4-2,3.8c-0.5,0.4-1.1,0.5-1.7,0.2c-1.3-0.7-2.3-1.5-3-2.2c-3.3,2.4-7.8,3.2-11.1,3.5
							C17.1,94.9,17.1,94.9,17,94.9z M23.5,83.4c-4.9,0-8.5,1.9-8.5,3.7v2.5c0,0.7,0.9,1.6,2.3,2.3c3.2-0.3,7.5-1.2,10.1-3.6
							c0.3-0.3,0.7-0.4,1.1-0.4c0.4,0,0.8,0.2,1.1,0.5c0,0,0.8,1,2.2,1.9c0.2-0.2,0.2-0.5,0.2-0.7v-2.5C32,85.3,28.4,83.4,23.5,83.4
							z"/>
					</g>
					<g>
						<polygon fill="#FFFFFF" points="23.8,117.1 21.3,114.6 23.8,112.1 26.3,114.6 						"/>
					</g>
				</g>
				<g>
					<g>
						<path fill="#37474F" d="M123.9,122.5c-1.7-10-9.6-16.1-19.2-16.1c-9.6,0-17.5,6.1-19.2,16.1H123.9z"/>
						<path fill="#37474F" d="M123.9,124H85.6c-0.4,0-0.9-0.2-1.1-0.5c-0.3-0.3-0.4-0.8-0.3-1.2c1.8-10.4,10.1-17.3,20.7-17.3
							c10.6,0,18.9,7,20.7,17.4c0.1,0.4,0,0.9-0.3,1.2C124.8,123.8,124.4,124,123.9,124z M87.4,121h34.7c-2.1-8-8.7-13.1-17.3-13.1
							C96.1,107.9,89.5,113,87.4,121z"/>
					</g>
					<g>
						<path fill="#FFECB3" d="M114.5,98.2c0,5.6-4.4,10.1-10,10.1l0,0c-5.6,0-10-4.5-10-10.1v-5c0-5.6,4.4-10.1,10-10.1l0,0
							c5.6,0,10,4.5,10,10.1V98.2z"/>
						<path fill="#37474F" d="M104.5,109.8c-6.3,0-11.5-5.2-11.5-11.6v-5c0-6.4,5.2-11.6,11.5-11.6S116,86.8,116,93.2v5
							C116,104.6,110.8,109.8,104.5,109.8z M104.5,84.6c-4.7,0-8.5,3.9-8.5,8.6v5c0,4.7,3.8,8.6,8.5,8.6c4.8,0,8.5-3.8,8.5-8.6v-5
							C113,88.4,109.3,84.6,104.5,84.6z"/>
					</g>
					<g>
						<path fill="#37474F" d="M98.1,93.4c3.7-0.3,8.4-1.3,11.3-4.1c0,0,1.3,1.6,3.7,2.9c0.9-0.8,1.4-1.6,1.4-2.6v-2.5
							c0-2.9-4.4-5.2-10-5.2c-5.6,0-10,2.3-10,5.2v2.5C94.5,91.1,95.9,92.5,98.1,93.4z"/>
						<path fill="#37474F" d="M98.1,94.9c-0.2,0-0.4,0-0.6-0.1c-2.9-1.3-4.5-3.1-4.5-5.2v-2.5c0-3.8,4.9-6.7,11.5-6.7
							s11.5,2.9,11.5,6.7v2.5c0,1-0.3,2.4-2,3.8c-0.5,0.4-1.1,0.5-1.7,0.2c-1.3-0.7-2.4-1.5-3.1-2.2c-3.3,2.4-7.8,3.2-11.1,3.5
							C98.2,94.9,98.1,94.9,98.1,94.9z M104.5,83.4c-4.9,0-8.5,1.9-8.5,3.7v2.5c0,0.7,0.9,1.6,2.3,2.3c3.2-0.3,7.4-1.2,10-3.6
							c0.3-0.3,0.7-0.4,1.1-0.4c0.4,0,0.8,0.2,1.1,0.6c0,0,0.8,1,2.2,1.9c0.2-0.4,0.2-0.6,0.2-0.7v-2.5
							C113,85.3,109.4,83.4,104.5,83.4z"/>
					</g>
					<g>
						<polygon fill="#FFFFFF" points="104.8,117.1 102.2,114.6 104.8,112.1 107.3,114.6 						"/>
					</g>
				</g>
			</g>
		</g>
		<g>
			<polygon fill="#FFAB00" points="48,89.5 64.3,61.4 80.5,89.5 			"/>
			<path fill="#37474F" d="M80.5,91H48c-0.5,0-1-0.3-1.3-0.8c-0.3-0.5-0.3-1,0-1.5L63,60.7c0.3-0.5,0.8-0.8,1.3-0.8l0,0
				c0.5,0,1,0.3,1.3,0.8l16.2,28.1c0.3,0.5,0.3,1,0,1.5C81.5,90.7,81,91,80.5,91z M50.6,88h27.2L64.3,64.4L50.6,88z"/>
		</g>
	</g>
	<g>
		<g>
			<path fill="#37474F" d="M42.4,97.2c0,0.7-0.6,1.3-1.3,1.3c-0.7,0-1.3-0.6-1.3-1.3c0-0.7,0.6-1.4,1.3-1.4
				C41.8,95.8,42.4,96.5,42.4,97.2z"/>
			<path fill="#37474F" d="M41.1,99c-1,0-1.8-0.8-1.8-1.8c0-1,0.8-1.9,1.8-1.9c1,0,1.8,0.8,1.8,1.9C42.9,98.2,42.1,99,41.1,99z
				 M41.1,96.3c-0.5,0-0.8,0.4-0.8,0.9c0,0.4,0.4,0.8,0.8,0.8c0.5,0,0.8-0.4,0.8-0.8C41.9,96.7,41.5,96.3,41.1,96.3z"/>
		</g>
		<g>
			<path fill="#37474F" d="M88.8,97.2c0,0.7-0.6,1.3-1.3,1.3c-0.8,0-1.3-0.6-1.3-1.3c0-0.7,0.6-1.4,1.3-1.4
				C88.2,95.8,88.8,96.5,88.8,97.2z"/>
			<path fill="#37474F" d="M87.4,99c-1,0-1.8-0.8-1.8-1.8c0-1,0.8-1.9,1.8-1.9c1,0,1.8,0.8,1.8,1.9C89.3,98.2,88.4,99,87.4,99z
				 M87.4,96.3c-0.5,0-0.8,0.4-0.8,0.9c0,0.5,0.4,0.8,0.8,0.8c0.4,0,0.8-0.4,0.8-0.8C88.3,96.7,87.9,96.3,87.4,96.3z"/>
		</g>
	</g>
	<g>
		<g>
			<path fill="#37474F" d="M64.2,45.3c-0.7,0-1.3-0.6-1.3-1.3c0-0.7,0.6-1.3,1.3-1.3c0.7,0,1.3,0.6,1.3,1.3
				C65.6,44.7,65,45.3,64.2,45.3z"/>
			<path fill="#37474F" d="M64.2,45.8c-1,0-1.8-0.8-1.8-1.8c0-1,0.8-1.8,1.8-1.8c1,0,1.8,0.8,1.8,1.8C66.1,44.9,65.2,45.8,64.2,45.8
				z M64.2,43.1c-0.4,0-0.8,0.4-0.8,0.8c0,0.4,0.4,0.8,0.8,0.8c0.5,0,0.8-0.4,0.8-0.8C65.1,43.5,64.7,43.1,64.2,43.1z"/>
		</g>
		<g>
			<path fill="#37474F" d="M64.2,54.6c-0.7,0-1.3-0.6-1.3-1.3c0-0.7,0.6-1.3,1.3-1.3c0.7,0,1.3,0.6,1.3,1.3
				C65.6,53.9,65,54.6,64.2,54.6z"/>
			<path fill="#37474F" d="M64.2,55.1c-1,0-1.8-0.8-1.8-1.8s0.8-1.8,1.8-1.8c1,0,1.8,0.8,1.8,1.8C66.1,54.2,65.2,55.1,64.2,55.1z
				 M64.2,52.4c-0.5,0-0.8,0.4-0.8,0.8c0,0.5,0.4,0.8,0.8,0.8c0.5,0,0.8-0.4,0.8-0.8S64.7,52.4,64.2,52.4z"/>
		</g>
		<g>
			<path fill="#37474F" d="M64.2,63.8c-0.7,0-1.3-0.6-1.3-1.3c0-0.8,0.6-1.3,1.3-1.3c0.7,0,1.3,0.6,1.3,1.3
				C65.6,63.2,65,63.8,64.2,63.8z"/>
			<path fill="#37474F" d="M64.2,64.3c-1,0-1.8-0.8-1.8-1.8c0-1,0.8-1.8,1.8-1.8c1,0,1.8,0.8,1.8,1.8C66.1,63.5,65.3,64.3,64.2,64.3
				z M64.2,61.7c-0.5,0-0.8,0.4-0.8,0.8c0,0.5,0.4,0.8,0.8,0.8c0.5,0,0.8-0.4,0.8-0.8C65.1,62,64.7,61.7,64.2,61.7z"/>
		</g>
	</g>
</g>
</svg>
