<?xml version="1.0" encoding="utf-8"?>
<!-- Generator: Adobe Illustrator 16.0.0, SVG Export Plug-In . SVG Version: 6.00 Build 0)  -->
<!DOCTYPE svg PUBLIC "-//W3C//DTD SVG 1.1//EN" "http://www.w3.org/Graphics/SVG/1.1/DTD/svg11.dtd">
<svg version="1.1" id="Layer_1" xmlns="http://www.w3.org/2000/svg" xmlns:xlink="http://www.w3.org/1999/xlink" x="0px" y="0px"
	 width="128px" height="128px" viewBox="0 0 128 128" enable-background="new 0 0 128 128" xml:space="preserve">
<g>
	<rect x="4.5" y="6.5" fill="#FFFFFF" stroke="#37474F" stroke-width="3" stroke-miterlimit="10" width="118" height="114"/>
	<rect x="4.5" y="6.5" fill="#FFFFFF" stroke="#37474F" stroke-width="3" stroke-miterlimit="10" width="118" height="24"/>
	<g>
		<g>
			
				<line fill="none" stroke="#37474F" stroke-width="3" stroke-linecap="round" stroke-miterlimit="10" x1="30" y1="70.5" x2="97" y2="70.5"/>
		</g>
		<g>
			
				<line fill="#FFAB00" stroke="#FFAB00" stroke-width="3" stroke-linecap="round" stroke-linejoin="round" stroke-miterlimit="10" x1="30" y1="55.5" x2="97" y2="55.5"/>
		</g>
		<g>
			
				<line fill="none" stroke="#37474F" stroke-width="3" stroke-linecap="round" stroke-miterlimit="10" x1="30" y1="82.5" x2="97" y2="82.5"/>
		</g>
		<g>
			
				<line fill="none" stroke="#37474F" stroke-width="3" stroke-linecap="round" stroke-miterlimit="10" x1="30" y1="94.5" x2="97" y2="94.5"/>
		</g>
		<g>
			
				<line fill="none" stroke="#37474F" stroke-width="3" stroke-linecap="round" stroke-miterlimit="10" x1="30" y1="107.5" x2="97" y2="107.5"/>
		</g>
	</g>
	<polygon fill="#37474F" points="17.6,22.5 13.9,18.9 17.6,15.3 21.2,18.9 	"/>
	<g>
		<path fill="#37474F" stroke="#37474F" stroke-miterlimit="10" d="M53.1,42.7c0,1-0.8,1.8-1.7,1.8c-1,0-1.8-0.8-1.8-1.8
			s0.8-1.8,1.8-1.8C52.3,40.9,53.1,41.8,53.1,42.7z"/>
		<path fill="#37474F" stroke="#37474F" stroke-miterlimit="10" d="M65.4,42.7c0,1-0.8,1.8-1.8,1.8s-1.8-0.8-1.8-1.8
			s0.8-1.8,1.8-1.8S65.4,41.8,65.4,42.7z"/>
		<path fill="#37474F" stroke="#37474F" stroke-miterlimit="10" d="M77.7,42.7c0,1-0.8,1.8-1.8,1.8c-1,0-1.8-0.8-1.8-1.8
			s0.8-1.8,1.8-1.8C76.9,40.9,77.7,41.8,77.7,42.7z"/>
	</g>
	<g>
		<path fill="#78909C" d="M54,14.2c0,0,0,0.1,0,0.2c0,0.1,0,0.1-0.1,0.2l-2.5,8.2c0,0.1,0,0.1-0.1,0.2c0,0-0.1,0.1-0.1,0.1
			c-0.1,0-0.2,0-0.3,0c-0.1,0-0.3,0-0.5,0c-0.2,0-0.3,0-0.5,0c-0.1,0-0.2,0-0.3,0c-0.1,0-0.1-0.1-0.2-0.1c0,0-0.1-0.1-0.1-0.1
			l-1.8-6.2l0-0.1v0.1l-1.7,6.2c0,0.1,0,0.1-0.1,0.2c0,0-0.1,0.1-0.2,0.1c-0.1,0-0.2,0-0.3,0c-0.1,0-0.3,0-0.5,0c-0.2,0-0.4,0-0.5,0
			c-0.1,0-0.2,0-0.3,0c-0.1,0-0.1-0.1-0.2-0.1c0,0-0.1-0.1-0.1-0.1l-2.5-8.2c0-0.1,0-0.2-0.1-0.2c0-0.1,0-0.1,0-0.2
			c0-0.1,0-0.1,0.1-0.1c0,0,0.1-0.1,0.1-0.1c0.1,0,0.1,0,0.2,0c0.1,0,0.2,0,0.4,0c0.2,0,0.3,0,0.5,0c0.1,0,0.2,0,0.2,0
			c0.1,0,0.1,0,0.1,0.1c0,0,0,0.1,0.1,0.2l2.1,7.1v0.1l0-0.1l1.9-7.1c0-0.1,0-0.1,0.1-0.2c0,0,0.1-0.1,0.1-0.1c0.1,0,0.1,0,0.2,0
			c0.1,0,0.2,0,0.4,0c0.1,0,0.3,0,0.4,0c0.1,0,0.2,0,0.2,0c0.1,0,0.1,0,0.1,0.1c0,0,0,0.1,0.1,0.1l2,7.1l0,0.1v-0.1l2.1-7.1
			c0-0.1,0-0.1,0.1-0.2c0,0,0.1-0.1,0.1-0.1c0.1,0,0.1,0,0.3,0c0.1,0,0.2,0,0.4,0c0.1,0,0.3,0,0.4,0c0.1,0,0.2,0,0.2,0
			c0.1,0,0.1,0,0.1,0.1C54,14.1,54,14.1,54,14.2z"/>
		<path fill="#78909C" d="M70,14.2c0,0,0,0.1,0,0.2c0,0.1,0,0.1-0.1,0.2l-2.5,8.2c0,0.1,0,0.1-0.1,0.2c0,0-0.1,0.1-0.2,0.1
			c-0.1,0-0.1,0-0.3,0c-0.1,0-0.3,0-0.5,0c-0.2,0-0.4,0-0.5,0c-0.1,0-0.2,0-0.3,0c-0.1,0-0.1-0.1-0.2-0.1c0,0-0.1-0.1-0.1-0.1
			l-1.8-6.2v-0.1l0,0.1l-1.7,6.2c0,0.1-0.1,0.1-0.1,0.2c0,0-0.1,0.1-0.2,0.1c-0.1,0-0.2,0-0.3,0c-0.1,0-0.3,0-0.5,0
			c-0.2,0-0.4,0-0.5,0c-0.1,0-0.2,0-0.3,0c-0.1,0-0.1-0.1-0.1-0.1c0,0-0.1-0.1-0.1-0.1l-2.5-8.2c0-0.1-0.1-0.2-0.1-0.2
			c0-0.1,0-0.1,0-0.2c0-0.1,0-0.1,0-0.1c0,0,0.1-0.1,0.2-0.1c0.1,0,0.1,0,0.2,0c0.1,0,0.2,0,0.4,0c0.2,0,0.3,0,0.4,0
			c0.1,0,0.2,0,0.2,0c0.1,0,0.1,0,0.1,0.1c0,0,0.1,0.1,0.1,0.2l2.1,7.1v0.1l0-0.1l1.9-7.1c0-0.1,0.1-0.1,0.1-0.2
			c0,0,0.1-0.1,0.1-0.1c0.1,0,0.1,0,0.2,0c0.1,0,0.2,0,0.4,0c0.1,0,0.3,0,0.4,0c0.1,0,0.2,0,0.2,0c0.1,0,0.1,0,0.1,0.1
			c0,0,0,0.1,0.1,0.1l2,7.1l0,0.1l0-0.1l2-7.1c0-0.1,0-0.1,0.1-0.2c0,0,0.1-0.1,0.1-0.1c0.1,0,0.1,0,0.2,0c0.1,0,0.3,0,0.4,0
			c0.2,0,0.3,0,0.4,0c0.1,0,0.1,0,0.2,0c0.1,0,0.1,0,0.1,0.1C70,14.1,70,14.1,70,14.2z"/>
		<path fill="#78909C" d="M86,14.2c0,0,0,0.1,0,0.2c0,0.1,0,0.1-0.1,0.2l-2.6,8.2c0,0.1,0,0.1-0.1,0.2c-0.1,0-0.1,0.1-0.2,0.1
			c-0.1,0-0.2,0-0.3,0c-0.1,0-0.3,0-0.5,0c-0.2,0-0.4,0-0.5,0c-0.2,0-0.3,0-0.3,0c-0.1,0-0.1-0.1-0.2-0.1c0,0-0.1-0.1-0.1-0.1
			l-1.8-6.2l0-0.1v0.1l-1.7,6.2c0,0.1,0,0.1-0.1,0.2c-0.1,0-0.1,0.1-0.2,0.1c-0.1,0-0.2,0-0.3,0c-0.1,0-0.3,0-0.5,0
			c-0.2,0-0.4,0-0.5,0c-0.1,0-0.2,0-0.3,0c-0.1,0-0.1-0.1-0.2-0.1c0,0,0-0.1-0.1-0.1l-2.5-8.2c0-0.1-0.1-0.2-0.1-0.2
			c0-0.1,0-0.1,0-0.2c0-0.1,0-0.1,0.1-0.1c0,0,0-0.1,0.1-0.1c0.1,0,0.1,0,0.2,0c0.1,0,0.2,0,0.4,0c0.2,0,0.3,0,0.4,0
			c0.1,0,0.2,0,0.3,0c0,0,0.1,0,0.1,0.1c0,0,0,0.1,0.1,0.2l2.1,7.1v0.1l0-0.1l1.9-7.1c0-0.1,0-0.1,0.1-0.2c0,0,0.1-0.1,0.1-0.1
			c0.1,0,0.1,0,0.2,0c0.1,0,0.2,0,0.4,0c0.2,0,0.3,0,0.4,0c0.1,0,0.2,0,0.2,0c0.1,0,0.1,0,0.1,0.1c0,0,0,0.1,0,0.1l2.1,7.1l0,0.1
			v-0.1l2-7.1c0-0.1,0.1-0.1,0.1-0.2c0,0,0.1-0.1,0.1-0.1c0.1,0,0.1,0,0.2,0c0.1,0,0.2,0,0.4,0c0.1,0,0.3,0,0.4,0c0.1,0,0.2,0,0.2,0
			c0,0,0.1,0,0.1,0.1C86,14.1,86,14.1,86,14.2z"/>
	</g>
</g>
</svg>
